<svg width="27" height="24" viewBox="0 0 27 24" fill="none" xmlns="http://www.w3.org/2000/svg">
<path d="M7.02889 12.1377C6.07615 11.317 5.97244 9.88252 6.79664 8.93408C7.62128 7.98586 9.06226 7.88195 10.0148 8.70287L13.5744 11.775L23.0691 1.78095C23.9333 0.871884 25.374 0.832074 26.2874 1.69171C27.2006 2.55178 27.241 3.98626 26.3771 4.89533L15.4895 16.3558L15.4515 16.3989C14.6273 17.3473 13.1863 17.4508 12.2338 16.6305L7.02889 12.1377ZM4.13507 0H19.9746H19.9757V0.00787452H19.9821L16.0848 3.99938H4.13507H4.13199V3.99194C4.10914 3.99194 4.08058 4.00835 4.05421 4.0346L4.05025 4.03066L4.0463 4.0346C4.02389 4.05691 4.00982 4.08556 4.00982 4.11487H4.01773V4.11597V19.884V19.8867H4.01004C4.01004 19.9094 4.02696 19.9378 4.05333 19.9643L4.04937 19.9682L4.05333 19.9717C4.07574 19.9945 4.10453 20.0081 4.13353 20.0081V20.0008H4.13507H19.9746H19.9773V20.0081C20.0056 20.0081 20.0366 19.9919 20.063 19.9654C20.0856 19.9431 20.0994 19.9147 20.0994 19.8851H20.092V19.8843V15.9807L24.1095 11.8656V19.884V19.8849H24.1013C24.1009 21.0188 23.6362 22.0489 22.8882 22.7926C22.1458 23.5317 21.1155 23.991 19.9775 23.9921V23.9998H19.9748H4.13507H4.13353V23.9921C2.99644 23.9912 1.96393 23.5304 1.21664 22.7878L1.21268 22.7917C0.470219 22.0526 0.00922859 21.0243 0.00791022 19.8867H0V19.884V4.11597V4.11487H0.00791022C0.00834968 2.98247 0.471757 1.95529 1.21773 1.21136L1.21378 1.20743C1.95602 0.467878 2.98853 0.0089682 4.13221 0.00809325V0H4.13507Z" fill="#0B6BB2"/>
</svg>
