<svg width="16" height="21" viewBox="0 0 16 21" fill="none" xmlns="http://www.w3.org/2000/svg">
<path d="M8.65 1.23969L8 0.679688L7.35 1.23969C7 1.49969 0 7.59969 0 12.9997C0 15.1214 0.842855 17.1563 2.34315 18.6565C3.84344 20.1568 5.87827 20.9997 8 20.9997C10.1217 20.9997 12.1566 20.1568 13.6569 18.6565C15.1571 17.1563 16 15.1214 16 12.9997C16 7.59969 9 1.49969 8.65 1.23969ZM10.23 17.4697L9.34 15.6797C9.83813 15.431 10.2572 15.0486 10.5504 14.5753C10.8436 14.102 10.9992 13.5564 11 12.9997H13C12.999 13.9285 12.7394 14.8387 12.2501 15.6283C11.7609 16.4178 11.0613 17.0554 10.23 17.4697Z" fill="white"/>
</svg>
