<svg width="32" height="33" viewBox="0 0 32 33" fill="none" xmlns="http://www.w3.org/2000/svg">
<g clip-path="url(#clip0_1363_333)">
<path d="M4.125 32.75C5.91993 32.75 7.375 31.2949 7.375 29.5C7.375 27.7051 5.91993 26.25 4.125 26.25C2.33007 26.25 0.875 27.7051 0.875 29.5C0.875 31.2949 2.33007 32.75 4.125 32.75Z" fill="white"/>
<path d="M12.25 6.75C14.0449 6.75 15.5 5.29493 15.5 3.5C15.5 1.70507 14.0449 0.25 12.25 0.25C10.4551 0.25 9 1.70507 9 3.5C9 5.29493 10.4551 6.75 12.25 6.75Z" fill="white"/>
<path d="M20.375 32.75C22.1699 32.75 23.625 31.2949 23.625 29.5C23.625 27.7051 22.1699 26.25 20.375 26.25C18.5801 26.25 17.125 27.7051 17.125 29.5C17.125 31.2949 18.5801 32.75 20.375 32.75Z" fill="white"/>
<path d="M28.5 32.75C30.2949 32.75 31.75 31.2949 31.75 29.5C31.75 27.7051 30.2949 26.25 28.5 26.25C26.7051 26.25 25.25 27.7051 25.25 29.5C25.25 31.2949 26.7051 32.75 28.5 32.75Z" fill="white"/>
<path d="M28.5 16.5C30.2949 16.5 31.75 15.0449 31.75 13.25C31.75 11.4551 30.2949 10 28.5 10C26.7051 10 25.25 11.4551 25.25 13.25C25.25 15.0449 26.7051 16.5 28.5 16.5Z" fill="white"/>
<path d="M28.5 6.75C30.2949 6.75 31.75 5.29493 31.75 3.5C31.75 1.70507 30.2949 0.25 28.5 0.25C26.7051 0.25 25.25 1.70507 25.25 3.5C25.25 5.29493 26.7051 6.75 28.5 6.75Z" fill="white"/>
<path d="M12.25 31.125H4.125C3.69402 31.125 3.2807 30.9538 2.97595 30.6491C2.67121 30.3443 2.5 29.931 2.5 29.5C2.5 29.069 2.67121 28.6557 2.97595 28.351C3.2807 28.0462 3.69402 27.875 4.125 27.875H10.625V5.125C10.625 4.69402 10.7962 4.2807 11.101 3.97595C11.4057 3.67121 11.819 3.5 12.25 3.5C12.681 3.5 13.0943 3.67121 13.399 3.97595C13.7038 4.2807 13.875 4.69402 13.875 5.125V29.5C13.875 29.931 13.7038 30.3443 13.399 30.6491C13.0943 30.9538 12.681 31.125 12.25 31.125Z" fill="white"/>
<path d="M4.125 23C5.91993 23 7.375 21.5449 7.375 19.75C7.375 17.9551 5.91993 16.5 4.125 16.5C2.33007 16.5 0.875 17.9551 0.875 19.75C0.875 21.5449 2.33007 23 4.125 23Z" fill="white"/>
<path d="M4.125 6.75C5.91993 6.75 7.375 5.29493 7.375 3.5C7.375 1.70507 5.91993 0.25 4.125 0.25C2.33007 0.25 0.875 1.70507 0.875 3.5C0.875 5.29493 2.33007 6.75 4.125 6.75Z" fill="white"/>
<path d="M4.125 19.75C3.69402 19.75 3.2807 19.5788 2.97595 19.274C2.67121 18.9693 2.5 18.556 2.5 18.125V5.125C2.5 4.69402 2.67121 4.2807 2.97595 3.97595C3.2807 3.67121 3.69402 3.5 4.125 3.5C4.55598 3.5 4.9693 3.67121 5.27405 3.97595C5.57879 4.2807 5.75 4.69402 5.75 5.125V18.125C5.75 18.556 5.57879 18.9693 5.27405 19.274C4.9693 19.5788 4.55598 19.75 4.125 19.75Z" fill="white"/>
<path d="M28.5 29.5C28.069 29.5 27.6557 29.3288 27.351 29.024C27.0462 28.7193 26.875 28.306 26.875 27.875V13.25C26.875 12.819 27.0462 12.4057 27.351 12.101C27.6557 11.7962 28.069 11.625 28.5 11.625C28.931 11.625 29.3443 11.7962 29.649 12.101C29.9538 12.4057 30.125 12.819 30.125 13.25V27.875C30.125 28.306 29.9538 28.7193 29.649 29.024C29.3443 29.3288 28.931 29.5 28.5 29.5Z" fill="white"/>
<path d="M20.375 29.5C19.944 29.5 19.5307 29.3288 19.226 29.0241C18.9212 28.7193 18.75 28.306 18.75 27.875V3.5C18.75 3.06902 18.9212 2.6557 19.226 2.35095C19.5307 2.0462 19.944 1.875 20.375 1.875H28.5C28.931 1.875 29.3443 2.0462 29.649 2.35095C29.9538 2.6557 30.125 3.06902 30.125 3.5C30.125 3.93098 29.9538 4.3443 29.649 4.64905C29.3443 4.9538 28.931 5.125 28.5 5.125H22V27.875C22 28.306 21.8288 28.7193 21.524 29.0241C21.2193 29.3288 20.806 29.5 20.375 29.5Z" fill="white"/>
</g>
<defs>
<clipPath id="clip0_1363_333">
<rect width="32" height="33" fill="white"/>
</clipPath>
</defs>
</svg>
