<svg width="37" height="31" viewBox="0 0 37 31" fill="none" xmlns="http://www.w3.org/2000/svg">
<path d="M35.9837 15.7496C35.8172 15.9495 35.6091 16.1108 35.374 16.2222C35.1388 16.3336 34.8822 16.3924 34.622 16.3946C34.2034 16.3954 33.7977 16.2496 33.4754 15.9825L32.8304 15.4987V27.1446C32.8304 28.0949 32.4528 29.0064 31.7808 29.6784C31.1088 30.3504 30.1974 30.7279 29.247 30.7279H23.872C23.3969 30.7279 22.9411 30.5392 22.6051 30.2031C22.2691 29.8671 22.0804 29.4114 22.0804 28.9362V21.7696C22.0804 21.2944 21.8916 20.8387 21.5556 20.5027C21.2196 20.1667 20.7639 19.9779 20.2887 19.9779H16.7054C16.2302 19.9779 15.7745 20.1667 15.4385 20.5027C15.1025 20.8387 14.9137 21.2944 14.9137 21.7696V28.9362C14.9137 29.4114 14.7249 29.8671 14.3889 30.2031C14.0529 30.5392 13.5972 30.7279 13.122 30.7279H7.74703C6.79668 30.7279 5.88524 30.3504 5.21323 29.6784C4.54123 29.0064 4.1637 28.0949 4.1637 27.1446V15.4987L3.5187 16.0362C3.15281 16.3404 2.6811 16.4867 2.20734 16.443C1.73357 16.3993 1.29657 16.1692 0.992451 15.8033C0.688337 15.4374 0.542026 14.9657 0.585706 14.492C0.629387 14.0182 0.85948 13.5812 1.22537 13.2771L15.1466 1.55958C16.0775 0.755152 17.2667 0.3125 18.497 0.3125C19.7273 0.3125 20.9166 0.755152 21.8474 1.55958L35.7687 13.2771C36.1168 13.5817 36.3336 14.0092 36.3736 14.4701C36.4137 14.9309 36.274 15.3894 35.9837 15.7496Z" fill="white"/>
</svg>
